<svg width="200" height="33" viewBox="0 0 200 33" fill="none" xmlns="http://www.w3.org/2000/svg">
<path d="M74.657 18.786C74.2238 19.6525 73.935 20.3745 73.5018 21.2409C72.7798 22.685 72.0577 24.2734 71.3357 25.7174C71.1913 25.8618 71.0469 26.1507 70.9025 26.1507C67.5812 27.3059 64.2599 27.3059 61.083 25.8618C57.9061 24.5622 56.3177 21.9629 55.8845 18.4972C55.0181 12.8655 58.4838 6.8005 63.8267 3.91242C66.1372 2.61278 68.7365 2.03517 71.3357 2.17957C71.7689 2.17957 72.3466 2.32397 72.7798 2.46838C73.0686 2.61278 73.3574 2.61278 73.5018 2.32397C73.7906 2.03517 73.935 2.03517 74.2238 2.17957C75.6679 2.90159 77.1119 3.47921 78.5559 4.20123C78.7003 4.20123 78.8447 4.34563 78.9891 4.49004C77.8339 6.6561 76.5343 8.82216 75.379 10.9882C74.5126 10.555 73.6462 9.97739 72.7798 9.68858C70.0361 8.82216 67.4368 8.96656 65.2708 10.8438C63.5379 12.4323 62.8159 14.3095 63.2491 16.62C63.6823 18.786 65.4152 20.2301 67.87 20.3745C70.1805 20.5189 72.2022 19.9413 74.2238 18.786C74.3682 18.786 74.5126 18.6416 74.657 18.786C74.5126 18.6416 74.657 18.6416 74.657 18.786Z" fill="#015DAA"/>
<path d="M55.8844 10.4118C57.7616 7.23495 56.462 2.90282 51.6967 2.61401C47.9421 2.61401 44.0432 2.61401 40.2887 2.61401C39.1335 4.92448 37.9783 7.23495 36.6786 9.68982C37.2562 9.68982 37.8339 9.68982 38.5559 9.68982C37.1118 15.3216 35.8122 20.8089 34.3682 26.4407C34.657 26.4407 34.8014 26.4407 34.9458 26.4407C38.5559 26.4407 42.166 26.4407 45.6317 26.4407C47.0757 26.4407 48.5198 26.1519 49.8194 25.5743C52.7075 24.1302 54.7291 21.9642 54.7291 18.4985C54.7291 16.4768 54.1515 14.8884 52.1299 14.0219C52.1299 14.0219 52.1299 14.0219 52.1299 13.8775C52.2743 13.7331 52.5631 13.5887 52.7075 13.4443C54.0071 12.7223 55.1624 11.7115 55.8844 10.4118ZM47.7977 19.2205C47.2201 19.9425 46.4981 20.2313 45.6317 20.2313C44.7653 20.2313 43.7544 20.2313 42.7436 20.2313C43.0324 18.9317 43.4656 17.632 43.7544 16.3324C44.7653 16.3324 45.7761 16.3324 46.7869 16.3324C47.3645 16.3324 47.9421 16.7656 48.0866 17.3432C48.3754 18.0653 48.231 18.6429 47.7977 19.2205ZM49.3862 10.123C49.2418 11.2783 48.5198 11.8559 47.0757 12.0003C46.3537 12.0003 45.6317 12.0003 44.7653 12.0003C45.0541 10.8451 45.3429 9.68982 45.6317 8.67899C46.4981 8.67899 47.5089 8.67899 48.3754 8.67899C49.2418 8.67899 49.5306 9.25661 49.3862 10.123Z" fill="#015DAA"/>
<path d="M94.1512 2.46851C94.0068 2.46851 94.0068 2.46851 93.8624 2.46851C90.2523 2.46851 86.7866 2.46851 83.1765 2.46851C83.0321 2.46851 82.7433 2.61291 82.5989 2.75731C81.588 4.49016 80.7216 6.07861 79.7108 7.81146C79.422 8.38908 78.9888 8.96669 78.7 9.68871C79.2776 9.68871 79.8552 9.68871 80.4328 9.68871C77.5447 15.3205 74.6566 20.8078 71.7686 26.4396C74.6566 26.4396 77.2559 26.4396 79.9996 26.4396C80.144 26.4396 80.4328 26.2952 80.4328 26.0064C80.866 24.8511 81.4436 23.8403 81.8768 22.6851C82.0212 22.3963 82.1657 22.2519 82.4545 22.2519C82.8877 22.2519 83.3209 22.2519 83.8985 22.2519C85.0537 22.2519 86.209 22.2519 87.5086 22.2519C87.5086 23.6959 87.653 24.9956 87.653 26.2952C90.1079 26.2952 92.5627 26.2952 95.0176 26.2952C94.8732 18.353 94.5844 10.4107 94.1512 2.46851ZM84.6205 16.7645C85.4869 14.7429 86.3534 12.7212 87.0754 10.6995C87.0754 10.6995 87.0754 10.6995 87.2198 10.6995C87.2198 12.7212 87.3642 14.7429 87.3642 16.7645C86.4978 16.7645 85.6314 16.7645 84.6205 16.7645Z" fill="#015DAA"/>
<path d="M158.99 13.4427C158.268 13.4427 157.546 13.4427 156.68 13.4427C156.968 12.143 157.113 10.8434 157.402 9.54376C158.124 9.54376 158.846 9.54376 159.423 9.54376C159.712 9.54376 159.857 9.54376 160.001 9.11055C160.29 7.66651 160.434 6.22247 160.723 4.77843C160.723 4.63402 160.867 4.48962 160.867 4.34521C163.033 4.34521 165.344 4.34521 167.51 4.34521C167.221 6.07806 166.932 7.81091 166.644 9.54376C167.799 9.54376 168.81 9.54376 169.82 9.54376C169.676 10.2658 169.532 10.8434 169.532 11.5654C169.387 12.143 169.387 12.5763 169.243 13.1539C169.243 13.4427 169.098 13.5871 168.81 13.5871C167.943 13.5871 167.077 13.5871 166.355 13.5871C166.066 13.5871 165.922 13.7315 165.922 14.0203C165.633 16.042 165.2 18.0636 164.911 20.0853C164.911 20.2297 164.911 20.3741 164.911 20.5185C164.766 21.3849 165.055 21.8181 166.066 21.8181C166.644 21.8181 167.221 21.8181 167.799 21.9625C167.654 22.8289 167.51 23.6954 167.366 24.5618C167.221 25.1394 167.077 25.8614 167.077 26.439C167.077 26.7279 166.932 26.7279 166.644 26.7279C164.622 26.8723 162.6 27.0167 160.434 26.7279C158.413 26.439 157.546 25.4282 157.691 23.4066C157.835 21.9625 158.124 20.3741 158.413 18.93C158.701 17.3416 158.99 15.7531 159.279 14.1647C158.99 13.7315 158.99 13.5871 158.99 13.4427Z" fill="#00A6B5"/>
<path d="M200 3.04712C199.856 3.76914 199.856 4.34676 199.711 4.92437C198.989 8.96769 198.267 13.011 197.545 17.0543C196.968 20.0868 196.535 23.1193 195.957 26.1518C195.957 26.2962 195.813 26.4406 195.668 26.4406C193.502 26.4406 191.336 26.4406 189.17 26.4406C189.314 25.1409 189.603 23.9857 189.748 22.8305C190.325 19.3648 191.047 15.7547 191.625 12.289C192.202 9.2565 192.636 6.36841 193.213 3.33593C193.213 3.19152 193.502 3.04712 193.502 3.04712C195.668 3.04712 197.834 3.04712 200 3.04712Z" fill="#00A6B5"/>
<path d="M156.39 9.40063C156.101 10.7003 155.957 11.8555 155.812 13.1551C155.09 16.9097 154.513 20.6642 153.791 24.4187C153.646 24.9963 153.646 25.5739 153.502 26.1515C153.502 26.2959 153.357 26.4403 153.213 26.4403C151.047 26.4403 148.881 26.4403 146.715 26.4403C146.715 26.4403 146.715 26.4403 146.57 26.2959C146.715 25.4295 146.859 24.7075 147.004 23.841C147.726 19.3645 148.592 14.888 149.314 10.4115C149.458 9.40064 149.458 9.40063 150.469 9.40063C152.491 9.40063 154.513 9.40063 156.39 9.40063Z" fill="#00A6B5"/>
<path d="M123.899 26.4404C121.589 26.4404 119.423 26.4404 117.112 26.4404C117.257 25.7184 117.401 24.9964 117.401 24.2744C118.268 19.5091 119.134 14.5993 120 9.83397C120 9.68957 120.145 9.54517 120.289 9.54517C122.455 9.54517 124.477 9.54517 126.643 9.54517C126.643 9.54517 126.643 9.54517 126.787 9.54517C125.921 15.1769 124.91 20.8087 123.899 26.4404Z" fill="#00A6B5"/>
<path d="M157.69 2.46802C157.401 3.91206 157.112 5.5005 156.823 6.94455C156.823 7.08895 156.679 7.23335 156.534 7.23335C154.368 7.23335 152.347 7.23335 150.181 7.23335C150.181 7.23335 150.181 7.23335 150.036 7.23335C150.181 6.51133 150.325 5.78931 150.469 5.06729C150.614 4.34527 150.758 3.62325 150.903 2.90123C150.903 2.61242 150.903 2.46802 151.336 2.46802C153.357 2.46802 155.379 2.46802 157.69 2.46802C157.545 2.46802 157.545 2.46802 157.69 2.46802Z" fill="#00A6B5"/>
<path d="M121.3 2.46802C123.611 2.46802 125.777 2.46802 128.087 2.46802C127.943 4.05646 127.654 5.64491 127.365 7.23335C125.055 7.23335 122.889 7.23335 120.578 7.23335C120.867 5.64491 121.156 4.05646 121.3 2.46802Z" fill="#00A6B5"/>
<path d="M141.372 9.54437C141.228 10.2664 141.083 10.844 140.939 11.7104C140.794 11.566 140.65 11.4216 140.65 11.2772C140.072 10.4108 139.206 9.83318 138.195 9.39997C135.596 8.67795 133.285 9.11116 131.119 10.6996C127.942 13.1545 126.787 16.4758 126.932 20.3747C127.076 22.5407 128.087 24.2736 130.109 25.14C132.275 26.0064 134.441 25.862 136.462 24.9956C137.04 24.7068 137.473 24.418 138.195 23.9848C137.906 24.8512 137.762 25.7176 137.618 26.5841C137.04 28.4613 135.307 28.8945 133.863 28.4613C133.574 28.3169 133.285 28.0281 132.997 27.7393C132.852 27.4505 132.708 27.4505 132.563 27.4505C130.542 27.4505 128.52 27.4505 126.354 27.4505C126.21 27.4505 126.21 27.4505 126.065 27.4505C125.921 28.4613 126.498 29.6166 127.22 30.3386C129.675 32.9378 136.896 32.0714 137.473 31.927C139.35 31.6382 141.083 30.9162 142.383 29.3277C143.538 27.8837 143.971 26.2953 144.405 24.5624C145.271 20.2303 145.993 15.8982 146.715 11.566C146.859 10.844 147.004 10.122 147.148 9.25557C145.271 9.54437 143.394 9.54437 141.372 9.54437ZM138.051 20.2303C137.329 20.9523 136.462 21.0967 135.452 20.9523C134.441 20.6635 133.863 19.7971 133.863 18.2086C133.863 17.1978 134.296 16.0426 134.874 15.0317C135.596 14.0209 137.04 13.5877 138.195 14.0209C138.773 14.3097 139.206 14.7429 139.35 15.3205C139.784 17.1978 139.495 18.7862 138.051 20.2303Z" fill="#00A6B5"/>
<path d="M112.636 3.04712C112.491 3.04712 112.347 3.19152 112.347 3.33593C112.058 5.06878 111.769 6.80163 111.481 8.53448C111.336 9.4009 111.192 10.2673 111.047 11.1338C110.903 10.9893 110.759 10.8449 110.614 10.7005C110.181 10.1229 109.459 9.68971 108.737 9.4009C106.715 8.82328 104.838 8.82328 102.961 9.83411C100.939 10.9893 99.495 12.5778 98.6286 14.5994C97.4734 17.0543 97.0402 19.5092 97.4734 22.1085C97.9066 24.2745 99.0618 25.863 101.083 26.585C103.972 27.4514 106.571 27.0182 108.737 24.8521C108.881 24.7077 109.026 24.5633 109.17 24.4189C109.17 24.4189 109.17 24.4189 109.315 24.4189C109.17 24.9965 109.17 25.7186 109.026 26.4406C109.17 26.4406 109.17 26.4406 109.315 26.4406C111.192 26.4406 112.925 26.4406 114.802 26.4406C115.091 26.4406 115.235 26.2962 115.235 26.0074C115.524 24.1301 115.813 22.3973 116.246 20.52C116.679 17.9207 117.112 15.4659 117.546 12.8666C117.979 10.4117 118.412 7.81246 118.845 5.35758C118.99 4.63556 119.134 3.91354 119.278 3.04712C116.968 3.04712 114.802 3.04712 112.636 3.04712ZM108.737 21.0976C107.87 22.1085 106.86 22.2529 105.56 22.1085C104.838 21.9641 104.405 21.3864 104.26 20.6644C103.972 18.6428 104.405 16.7655 105.704 15.1771C106.571 14.3106 107.726 14.1662 108.737 14.455C109.748 14.7439 110.037 15.6103 110.037 16.6211C110.037 16.7655 110.037 16.9099 110.037 17.0543C110.037 18.4984 109.748 19.798 108.737 21.0976Z" fill="#00A6B5"/>
<path d="M188.303 17.3427C188.592 15.8987 188.737 14.4546 188.737 13.0106C188.737 11.5666 188.015 10.4113 186.715 9.83371C185.704 9.4005 184.549 9.2561 183.538 9.11169C180.794 8.82289 178.051 8.82289 175.307 9.68931C172.852 10.4113 171.264 11.9998 170.831 14.5991C170.975 14.5991 170.975 14.5991 170.975 14.5991C172.997 14.5991 175.018 14.5991 177.184 14.5991C177.329 14.5991 177.473 14.4546 177.473 14.3102C177.762 14.0214 178.051 13.4438 178.484 13.2994C179.35 12.8662 180.217 12.8662 181.228 13.155C182.094 13.4438 182.383 14.3102 181.661 15.0323C181.372 15.3211 181.083 15.4655 180.794 15.4655C179.928 15.6099 179.062 15.7543 178.051 15.8987C176.462 16.1875 174.729 16.3319 173.141 16.7651C170.831 17.3427 169.242 18.7868 168.664 21.2416C167.942 23.9853 169.098 26.007 171.841 26.5846C174.585 27.1622 177.184 26.729 179.639 25.285C179.928 25.1406 180.217 24.8517 180.65 24.7073C180.65 25.285 180.65 25.8626 180.65 26.4402C182.96 26.4402 185.127 26.4402 187.437 26.4402C187.581 26.4402 187.726 26.2958 187.726 26.2958C187.726 26.1514 187.726 26.007 187.581 25.8626C187.148 25.4294 187.004 24.8517 187.148 24.2741C187.437 21.9637 187.87 19.6532 188.303 17.3427ZM180.072 21.9637C179.206 22.9745 177.762 23.5521 176.462 23.1189C176.029 22.9745 175.596 22.6857 175.451 22.1081C175.451 21.386 175.596 20.8084 176.318 20.5196C176.896 20.2308 177.329 20.0864 177.906 19.942C178.484 19.7976 178.917 19.6532 179.495 19.5088C180.072 19.3644 180.506 19.22 181.083 19.0756C181.083 20.0864 180.794 21.0972 180.072 21.9637Z" fill="#00A6B5"/>
<path d="M0.288808 11.9992C0.433212 11.1328 0.577617 10.4107 0.722021 9.54432C1.15523 7.23385 1.87725 4.92339 2.88808 2.75732C3.03249 2.75732 3.17689 2.61292 3.32129 2.46852C6.64259 0.88007 10.1083 0.15805 13.7184 0.0136456C18.1949 -0.130759 22.3826 0.88007 26.5704 2.61292C26.7148 2.75732 27.0036 2.90173 27.148 3.19054C29.0252 7.08945 29.8917 11.1328 29.7472 15.4649C29.6028 19.075 28.7364 22.5407 27.0036 25.862C26.8592 26.0064 26.7148 26.1508 26.426 26.2952C23.5379 27.5948 20.5054 28.3169 17.1841 28.6057C12.4188 29.0389 7.79782 28.028 3.32129 26.1508C2.88808 26.0064 2.74368 25.7176 2.59927 25.4288C1.29964 22.6851 0.577617 19.797 0.144404 16.7645C0.144404 16.6201 0.144404 16.6201 0 16.4757C0.288808 14.8873 0.288808 13.4432 0.288808 11.9992ZM1.01083 13.4432C1.01083 18.0642 1.87725 21.6743 3.4657 25.14C3.6101 25.4288 3.75451 25.5732 4.04332 25.7176C8.51984 27.7392 13.1408 28.6057 18.0505 28.028C20.9386 27.7392 23.5379 27.0172 26.1371 25.862C26.2816 25.7176 26.426 25.5732 26.5704 25.4288C30.0361 18.2086 29.8917 10.844 26.5704 3.62375C26.5704 3.47934 26.426 3.33494 26.2816 3.19054C22.9603 1.7465 19.639 0.735666 16.0289 0.591262C11.8411 0.446858 7.79782 1.31328 4.04332 2.90173C3.6101 3.04613 3.4657 3.19054 3.32129 3.62375C1.73285 6.94504 0.866425 10.4107 1.01083 13.4432Z" fill="#015DAA"/>
<path d="M15.3067 21.5305C15.1623 21.5305 15.0179 21.5305 14.7291 21.5305C14.7291 21.3861 14.7291 21.2417 14.7291 20.9529C14.7291 19.5089 14.7291 18.0648 14.7291 16.6208C14.7291 14.7435 14.2959 13.0107 13.1406 11.5666C12.7074 11.1334 12.4186 10.8446 11.9854 10.4114C11.2634 9.54498 10.5413 8.53415 10.3969 7.37891C10.1081 4.34643 12.2742 2.18037 15.1623 2.46918C17.6171 2.61358 19.0612 4.05762 19.35 6.36809C19.6388 8.10094 18.9168 9.40057 17.7616 10.5558C15.8843 12.2887 15.1623 14.5991 15.1623 17.1984C15.3067 18.498 15.3067 19.9421 15.3067 21.5305Z" fill="#015DAA"/>
<path d="M16.1734 21.5299C16.029 21.5299 15.8846 21.5299 15.7402 21.5299C15.7402 21.5299 15.7402 21.5299 15.7402 21.3855C15.7402 19.5083 15.5958 17.4866 15.8846 15.6094C16.029 13.2989 17.0398 11.4216 19.0615 9.9776C20.3611 9.11118 21.9496 9.25558 23.2492 10.2664C24.4044 11.1328 24.8377 13.0101 24.26 14.3097C23.8268 15.3206 23.1048 15.7538 22.2384 16.0426C21.2276 16.3314 20.3611 16.6202 19.4947 16.909C17.3286 17.7754 16.3178 19.2195 16.1734 21.5299Z" fill="#015DAA"/>
<path d="M13.8629 21.5307C13.7185 19.0758 12.4189 17.6318 10.1084 16.7653C9.38638 16.4765 8.51995 16.1877 7.65353 16.0433C5.77627 15.7545 4.90985 13.8773 5.48746 12C6.20948 9.54514 9.24197 8.67871 11.2636 10.2672C13.1409 11.8556 14.0073 13.8773 14.1517 16.1877C14.2961 17.7762 14.1517 19.3646 14.1517 21.0975C14.2961 21.3863 14.2961 21.6751 13.8629 21.5307Z" fill="#015DAA"/>
<path d="M5.63152 15.7534C6.20913 16.0422 6.78675 16.331 7.21996 16.6198C8.5196 17.0531 9.81924 17.3419 11.1189 17.9195C12.5629 18.6415 13.4293 19.9411 13.2849 21.674C13.1405 21.5296 12.9961 21.5296 12.8517 21.3852C12.4185 20.5188 11.2633 19.9411 10.2525 20.0855C9.67483 20.0855 8.95281 20.2299 8.23079 20.3744C7.07556 20.5188 5.92033 19.9411 5.34271 18.7859C4.9095 17.9195 5.0539 16.331 5.63152 15.7534Z" fill="#015DAA"/>
<path d="M19.6391 19.942H19.4947C19.3503 19.7976 19.2058 19.7976 19.0614 19.6532C19.3503 19.6532 19.4947 19.6532 19.3503 19.22C19.2058 19.3644 19.2058 19.5088 19.0614 19.6532C18.3394 19.6532 17.9062 19.7976 17.6174 20.5196L17.473 20.664C17.1842 20.664 16.8954 20.664 16.751 20.3752C16.751 20.2308 16.751 20.2308 16.8954 20.0864C17.0398 20.0864 17.3286 20.2308 17.473 20.2308C17.6174 20.0864 17.7618 19.942 17.7618 19.6532C17.6174 19.5088 17.473 19.3644 17.3286 19.22C17.7618 18.4979 18.4838 17.9203 19.2058 17.6315C20.2167 17.1983 21.3719 16.9095 22.5271 16.6207C23.2492 16.4763 23.8268 16.1875 24.26 15.6099C24.8376 16.3319 24.8376 17.0539 24.8376 17.7759C24.6932 19.5088 23.3936 20.5196 21.6607 20.3752C21.2275 20.3752 20.9387 20.2308 20.5055 20.2308C20.2167 19.942 19.9279 19.7976 19.6391 19.942Z" fill="#015DAA"/>
<path d="M7.94207 23.9851C8.37528 24.1296 8.51969 24.1296 8.8085 24.274C8.66409 24.7072 8.66409 24.996 8.51969 25.4292C8.23088 25.4292 7.94207 25.4292 7.65326 25.2848C7.36445 25.1404 7.07565 24.996 7.22005 24.5628C7.22005 24.1296 7.36445 23.6963 7.50886 23.4075C7.50886 22.9743 7.79767 22.8299 8.37528 22.9743C8.8085 23.1187 8.9529 23.4075 8.8085 23.9851C8.51969 23.9851 8.37528 23.9851 8.37528 23.6963C8.37528 23.5519 8.23088 23.5519 8.23088 23.5519C8.08647 23.5519 7.94207 23.5519 7.94207 23.6963C7.79767 24.1296 7.65326 24.4184 7.65326 24.8516C7.65326 24.996 7.79767 25.1404 7.79767 25.1404C7.94207 25.1404 8.08647 25.1404 8.08647 24.996V24.7072C8.08647 24.4184 7.94207 24.274 7.94207 23.9851Z" fill="#015DAA"/>
<path d="M11.8415 23.6965C11.9859 23.6965 12.1304 23.6965 12.2748 23.6965C12.2748 24.2741 12.1304 24.7074 12.1304 25.1406C12.1304 25.285 12.2748 25.4294 12.2748 25.7182C12.4192 25.5738 12.5636 25.4294 12.5636 25.285C12.708 24.8518 12.708 24.2742 12.708 23.8409C12.8524 23.8409 12.9968 23.8409 13.1412 23.8409C13.2856 24.563 13.2856 25.1406 13.1412 25.7182C12.9968 26.1514 12.708 26.2958 12.2748 26.1514C11.8415 26.1514 11.5527 25.8626 11.5527 25.4294C11.6971 24.8518 11.6971 24.4186 11.8415 23.6965Z" fill="#015DAA"/>
<path d="M21.6608 22.8291C22.094 23.6955 22.5272 24.2731 22.9604 24.9952C22.6716 25.284 22.5272 25.1396 22.2384 24.8508C22.2384 24.7064 21.9496 24.7064 21.9496 24.7064C21.8052 24.7064 21.8052 24.8508 21.8052 24.9952C21.8052 25.284 21.6608 25.4284 21.3719 25.4284C21.3719 24.7064 21.2275 23.9843 21.2275 23.2623C21.2275 23.2623 21.5163 23.1179 21.6608 22.8291Z" fill="#015DAA"/>
<path d="M20.5056 24.2749C20.2168 24.1305 20.0724 24.1305 19.9279 23.9861C19.7835 23.9861 19.7835 23.8417 19.6391 23.8417C19.6391 23.8417 19.4947 23.9861 19.4947 24.1305C19.4947 24.5637 19.6391 24.9969 19.7835 25.2857C19.7835 25.4301 19.9279 25.4301 20.0724 25.4301C20.0724 25.4301 20.2168 25.2857 20.2168 25.1413C20.3612 24.8525 20.3612 24.8525 20.65 24.8525C20.7944 25.4301 20.65 25.7189 20.2168 25.8633C19.6391 26.0077 19.4947 25.8633 19.3503 25.1413C19.0615 24.8525 19.0615 24.5637 19.0615 24.1305C19.0615 23.6973 19.2059 23.4084 19.6391 23.4084C20.0724 23.4084 20.3612 23.5529 20.5056 24.2749Z" fill="#015DAA"/>
<path d="M16.7507 20.3755C16.8951 20.6643 17.1839 20.6643 17.4727 20.6643C17.3283 20.8087 17.1839 21.0975 17.0395 21.2419C16.8951 21.3863 16.7507 21.5307 16.6063 21.5307L16.4619 21.3863C16.6063 21.0975 16.6063 20.8087 16.7507 20.3755Z" fill="#015DAA"/>
<path d="M17.6172 20.5197C17.7616 19.7977 18.3392 19.6533 19.0612 19.6533C19.2056 19.7977 19.35 19.7977 19.4944 19.9421C18.9168 20.0865 18.1948 20.3753 17.6172 20.5197Z" fill="#015DAA"/>
<path d="M17.3287 19.219C17.4731 19.3634 17.6175 19.5078 17.7619 19.6522C17.6175 19.7966 17.4731 19.941 17.4731 20.2298C17.3287 20.2298 17.1843 20.0854 16.8955 20.0854C17.0399 19.7966 17.1843 19.5078 17.3287 19.219Z" fill="#015DAA"/>
<path d="M19.6387 19.9417C19.9275 19.6529 20.2163 19.9417 20.5051 20.0861C20.2163 20.0861 19.9275 20.0861 19.6387 19.9417Z" fill="#015DAA"/>
<path d="M19.0615 19.6522C19.2059 19.5078 19.2059 19.3634 19.3503 19.219C19.4947 19.6522 19.3503 19.6522 19.0615 19.6522Z" fill="#015DAA"/>
<path d="M18.3395 24.9962C18.3395 24.8518 18.1951 24.8518 18.3395 24.7074C18.6284 24.1298 18.1951 23.6966 17.4731 23.841C17.3287 23.841 17.1843 23.841 16.8955 23.9854C17.0399 24.8518 17.1843 25.5738 17.1843 26.2958C17.4731 26.2958 17.6175 26.2958 17.7619 26.1514C18.6284 26.007 18.7728 25.5738 18.3395 24.9962ZM17.9063 25.8626H17.7619C17.7619 25.7182 17.7619 25.5738 17.6175 25.285L17.7619 25.1406C17.9063 25.285 18.0507 25.285 18.0507 25.4294C18.0507 25.5738 17.9063 25.7182 17.9063 25.8626Z" fill="#015DAA"/>
<path d="M10.5417 23.5529C10.2529 23.4084 9.96408 23.4084 9.67527 23.4084C9.53087 24.1305 9.38646 24.9969 9.09766 25.7189C9.96408 25.8633 9.53087 25.1413 9.81968 24.8525C10.2529 24.8525 10.2529 25.1413 10.1085 25.4301C9.96408 25.7189 10.1085 26.0077 10.5417 26.0077C10.6861 25.4301 10.8305 24.9969 10.9749 24.4193C11.1193 23.9861 10.9749 23.6973 10.5417 23.5529ZM9.96408 24.4193C9.96408 24.2749 10.1085 23.9861 10.1085 23.8417C10.1085 23.8417 10.2529 23.8417 10.2529 23.6973C10.3973 23.8417 10.5417 23.9861 10.5417 24.1305C10.5417 24.5637 10.2529 24.4193 9.96408 24.4193Z" fill="#015DAA"/>
<path d="M15.4509 24.4187C15.3065 23.8411 15.0177 23.6967 14.0068 23.9855C14.0068 24.7075 14.0068 25.4295 14.0068 26.2959C14.1512 26.2959 14.2956 26.2959 14.44 26.2959C14.44 26.0071 14.44 25.7183 14.44 25.4295C15.1621 25.2851 15.4509 24.9963 15.4509 24.4187ZM14.8733 24.7075C14.7289 24.8519 14.5845 24.8519 14.44 24.9963C14.44 24.7075 14.44 24.5631 14.44 24.2743C14.5845 24.2743 14.7289 24.2743 14.8733 24.4187C14.8733 24.5631 14.8733 24.7075 14.8733 24.7075Z" fill="#015DAA"/>
</svg>
