<svg width="180" height="30" viewBox="0 0 180 30" fill="none" xmlns="http://www.w3.org/2000/svg">
<path d="M67.191 17.3503C66.8011 18.1301 66.5412 18.7799 66.1513 19.5597C65.5015 20.8593 64.8517 22.2889 64.2019 23.5885C64.0719 23.7185 63.9419 23.9784 63.812 23.9784C60.8228 25.0182 57.8336 25.0182 54.9744 23.7185C52.1152 22.5488 50.6856 20.2095 50.2957 17.0904C49.5159 12.0218 52.6351 6.5633 57.4437 3.96402C59.5232 2.79435 61.8625 2.2745 64.2019 2.40446C64.5917 2.40446 65.1116 2.53442 65.5015 2.66439C65.7614 2.79435 66.0213 2.79435 66.1513 2.53442C66.4112 2.2745 66.5412 2.2745 66.8011 2.40446C68.1008 3.05428 69.4004 3.57413 70.7 4.22395C70.83 4.22395 70.96 4.35392 71.0899 4.48388C70.0502 6.43334 68.8805 8.38279 67.8408 10.3322C67.0611 9.94236 66.2813 9.4225 65.5015 9.16257C63.0322 8.38279 60.6928 8.51275 58.7434 10.2023C57.1838 11.6319 56.534 13.3214 56.9239 15.4008C57.3138 17.3503 58.8733 18.6499 61.0827 18.7799C63.1621 18.9099 64.9816 18.39 66.8011 17.3503C66.9311 17.3503 67.0611 17.2203 67.191 17.3503C67.0611 17.2203 67.191 17.2203 67.191 17.3503Z" fill="#FAF8FB"/>
<path d="M50.2958 9.81345C51.9854 6.95425 50.8157 3.05534 46.5269 2.79541C43.1478 2.79541 39.6388 2.79541 36.2598 2.79541C35.22 4.87483 34.1803 6.95425 33.0107 9.16363C33.5305 9.16363 34.0504 9.16363 34.7002 9.16363C33.4006 14.2322 32.2309 19.1708 30.9312 24.2394C31.1912 24.2394 31.3211 24.2394 31.4511 24.2394C34.7002 24.2394 37.9493 24.2394 41.0684 24.2394C42.3681 24.2394 43.6677 23.9795 44.8374 23.4596C47.4366 22.16 49.2561 20.2106 49.2561 17.0914C49.2561 15.2719 48.7363 13.8423 46.9168 13.0625C46.9168 13.0625 46.9168 13.0625 46.9168 12.9326C47.0467 12.8026 47.3067 12.6727 47.4366 12.5427C48.6063 11.8929 49.646 10.9831 50.2958 9.81345ZM43.0179 17.7412C42.498 18.3911 41.8482 18.651 41.0684 18.651C40.2886 18.651 39.3789 18.651 38.4691 18.651C38.7291 17.4813 39.119 16.3116 39.3789 15.142C40.2886 15.142 41.1984 15.142 42.1081 15.142C42.628 15.142 43.1478 15.5319 43.2778 16.0517C43.5377 16.7015 43.4078 17.2214 43.0179 17.7412ZM44.4475 9.55353C44.3175 10.5932 43.6677 11.1131 42.3681 11.2431C41.7182 11.2431 41.0684 11.2431 40.2886 11.2431C40.5486 10.2033 40.8085 9.16363 41.0684 8.25389C41.8482 8.25389 42.7579 8.25389 43.5377 8.25389C44.3175 8.25389 44.5774 8.77374 44.4475 9.55353Z" fill="#FAF8FB"/>
<path d="M84.7363 2.66431C84.6063 2.66431 84.6063 2.66431 84.4764 2.66431C81.2273 2.66431 78.1081 2.66431 74.8591 2.66431C74.7291 2.66431 74.4692 2.79427 74.3392 2.92423C73.4295 4.4838 72.6497 5.9134 71.7399 7.47296C71.48 7.99282 71.0901 8.51267 70.8302 9.16249C71.35 9.16249 71.8699 9.16249 72.3897 9.16249C69.7905 14.2311 67.1912 19.1697 64.5919 24.2383C67.1912 24.2383 69.5305 24.2383 71.9999 24.2383C72.1298 24.2383 72.3897 24.1083 72.3897 23.8484C72.7796 22.8087 73.2995 21.8989 73.6894 20.8592C73.8193 20.5993 73.9493 20.4693 74.2092 20.4693C74.5991 20.4693 74.989 20.4693 75.5089 20.4693C76.5486 20.4693 77.5883 20.4693 78.758 20.4693C78.758 21.769 78.8879 22.9386 78.8879 24.1083C81.0973 24.1083 83.3067 24.1083 85.5161 24.1083C85.3861 16.9603 85.1262 9.81231 84.7363 2.66431ZM76.1587 15.5307C76.9385 13.7112 77.7183 11.8917 78.3681 10.0722C78.3681 10.0722 78.3681 10.0722 78.498 10.0722C78.498 11.8917 78.628 13.7112 78.628 15.5307C77.8482 15.5307 77.0684 15.5307 76.1587 15.5307Z" fill="#FAF8FB"/>
<path d="M143.09 12.5415C142.441 12.5415 141.791 12.5415 141.011 12.5415C141.271 11.3718 141.401 10.2021 141.661 9.03245C142.311 9.03245 142.961 9.03245 143.48 9.03245C143.74 9.03245 143.87 9.03245 144 8.64256C144.26 7.34293 144.39 6.04329 144.65 4.74365C144.65 4.61369 144.78 4.48372 144.78 4.35376C146.729 4.35376 148.809 4.35376 150.758 4.35376C150.498 5.91332 150.238 7.47289 149.979 9.03245C151.018 9.03245 151.928 9.03245 152.838 9.03245C152.708 9.68227 152.578 10.2021 152.578 10.8519C152.448 11.3718 152.448 11.7617 152.318 12.2815C152.318 12.5415 152.188 12.6714 151.928 12.6714C151.148 12.6714 150.368 12.6714 149.719 12.6714C149.459 12.6714 149.329 12.8014 149.329 13.0613C149.069 14.8808 148.679 16.7003 148.419 18.5198C148.419 18.6498 148.419 18.7797 148.419 18.9097C148.289 19.6895 148.549 20.0794 149.459 20.0794C149.979 20.0794 150.498 20.0794 151.018 20.2093C150.888 20.9891 150.758 21.7689 150.628 22.5487C150.498 23.0685 150.368 23.7184 150.368 24.2382C150.368 24.4981 150.238 24.4981 149.979 24.4981C148.159 24.6281 146.34 24.7581 144.39 24.4981C142.571 24.2382 141.791 23.3285 141.921 21.509C142.051 20.2093 142.311 18.7797 142.571 17.4801C142.831 16.0505 143.09 14.6209 143.35 13.1913C143.09 12.8014 143.09 12.6714 143.09 12.5415Z" fill="white"/>
<path d="M180 3.1853C179.87 3.83512 179.87 4.35498 179.74 4.87483C179.09 8.51382 178.44 12.1528 177.791 15.7918C177.271 18.521 176.881 21.2503 176.361 23.9795C176.361 24.1095 176.231 24.2394 176.101 24.2394C174.152 24.2394 172.202 24.2394 170.253 24.2394C170.383 23.0698 170.643 22.03 170.773 20.9903C171.292 17.8712 171.942 14.6221 172.462 11.503C172.982 8.77374 173.372 6.17447 173.892 3.44523C173.892 3.31527 174.152 3.1853 174.152 3.1853C176.101 3.1853 178.051 3.1853 180 3.1853Z" fill="white"/>
<path d="M140.751 8.90356C140.491 10.0732 140.361 11.1129 140.231 12.2826C139.581 15.6617 139.061 19.0407 138.411 22.4198C138.281 22.9396 138.281 23.4595 138.151 23.9794C138.151 24.1093 138.021 24.2393 137.891 24.2393C135.942 24.2393 133.992 24.2393 132.043 24.2393C132.043 24.2393 132.043 24.2393 131.913 24.1093C132.043 23.3295 132.173 22.6797 132.303 21.8999C132.953 17.8711 133.733 13.8422 134.382 9.81331C134.512 8.90356 134.512 8.90356 135.422 8.90356C137.242 8.90356 139.061 8.90356 140.751 8.90356Z" fill="white"/>
<path d="M111.509 24.2392C109.43 24.2392 107.48 24.2392 105.401 24.2392C105.531 23.5894 105.661 22.9396 105.661 22.2897C106.44 18.0009 107.22 13.5822 108 9.29338C108 9.16341 108.13 9.03345 108.26 9.03345C110.209 9.03345 112.029 9.03345 113.978 9.03345C113.978 9.03345 113.978 9.03345 114.108 9.03345C113.328 14.102 112.419 19.1706 111.509 24.2392Z" fill="white"/>
<path d="M141.921 2.66406C141.661 3.9637 141.401 5.3933 141.141 6.69294C141.141 6.8229 141.011 6.95287 140.881 6.95287C138.931 6.95287 137.112 6.95287 135.162 6.95287C135.162 6.95287 135.162 6.95287 135.032 6.95287C135.162 6.30305 135.292 5.65323 135.422 5.00341C135.552 4.35359 135.682 3.70377 135.812 3.05395C135.812 2.79403 135.812 2.66406 136.202 2.66406C138.022 2.66406 139.841 2.66406 141.921 2.66406C141.791 2.66406 141.791 2.66406 141.921 2.66406Z" fill="white"/>
<path d="M109.17 2.66406C111.249 2.66406 113.198 2.66406 115.278 2.66406C115.148 4.09366 114.888 5.52326 114.628 6.95287C112.549 6.95287 110.599 6.95287 108.52 6.95287C108.78 5.52326 109.04 4.09366 109.17 2.66406Z" fill="white"/>
<path d="M127.234 9.03271C127.104 9.68253 126.974 10.2024 126.845 10.9822C126.715 10.8522 126.585 10.7222 126.585 10.5923C126.065 9.81249 125.285 9.29264 124.375 8.90275C122.036 8.25293 119.956 8.64282 118.007 10.0724C115.148 12.2818 114.108 15.271 114.238 18.78C114.368 20.7294 115.278 22.289 117.097 23.0688C119.047 23.8486 120.996 23.7186 122.816 22.9388C123.335 22.6789 123.725 22.419 124.375 22.0291C124.115 22.8089 123.985 23.5886 123.855 24.3684C123.335 26.058 121.776 26.4478 120.476 26.058C120.216 25.928 119.956 25.6681 119.697 25.4081C119.567 25.1482 119.437 25.1482 119.307 25.1482C117.487 25.1482 115.668 25.1482 113.718 25.1482C113.588 25.1482 113.588 25.1482 113.458 25.1482C113.328 26.058 113.848 27.0977 114.498 27.7475C116.707 30.0868 123.206 29.3071 123.725 29.1771C125.415 28.9172 126.974 28.2673 128.144 26.8377C129.184 25.5381 129.574 24.1085 129.964 22.5489C130.743 18.65 131.393 14.7511 132.043 10.8522C132.173 10.2024 132.303 9.55257 132.433 8.77278C130.743 9.03271 129.054 9.03271 127.234 9.03271ZM124.245 18.65C123.595 19.2998 122.816 19.4298 121.906 19.2998C120.996 19.0399 120.476 18.2601 120.476 16.8305C120.476 15.9208 120.866 14.8811 121.386 13.9713C122.036 13.0616 123.335 12.6717 124.375 13.0616C124.895 13.3215 125.285 13.7114 125.415 14.2313C125.805 15.9208 125.545 17.3504 124.245 18.65Z" fill="white"/>
<path d="M101.372 3.1853C101.242 3.1853 101.112 3.31527 101.112 3.44523C100.852 5.0048 100.592 6.56436 100.332 8.12392C100.202 8.90371 100.072 9.68349 99.9423 10.4633C99.8123 10.3333 99.6823 10.2033 99.5524 10.0734C99.1625 9.55353 98.5127 9.16363 97.8628 8.90371C96.0433 8.38385 94.3538 8.38385 92.6643 9.2936C90.8448 10.3333 89.5452 11.7629 88.7654 13.5824C87.7257 15.7918 87.3358 18.0012 87.7257 20.3405C88.1156 22.29 89.1553 23.7196 90.9748 24.3694C93.574 25.1492 95.9134 24.7593 97.8628 22.8098C97.9928 22.6799 98.1228 22.5499 98.2527 22.4199C98.2527 22.4199 98.2527 22.4199 98.3827 22.4199C98.2527 22.9398 98.2527 23.5896 98.1228 24.2394C98.2527 24.2394 98.2527 24.2394 98.3827 24.2394C100.072 24.2394 101.632 24.2394 103.321 24.2394C103.581 24.2394 103.711 24.1095 103.711 23.8495C103.971 22.16 104.231 20.6004 104.621 18.9109C105.011 16.5716 105.401 14.3622 105.791 12.0228C106.181 9.81345 106.57 7.47411 106.96 5.26472C107.09 4.6149 107.22 3.96509 107.35 3.1853C105.271 3.1853 103.321 3.1853 101.372 3.1853ZM97.8628 19.4308C97.0831 20.3405 96.1733 20.4705 95.0036 20.3405C94.3538 20.2106 93.9639 19.6907 93.834 19.0409C93.574 17.2214 93.9639 15.5319 95.1336 14.1023C95.9134 13.3225 96.9531 13.1925 97.8628 13.4524C98.7726 13.7124 99.0325 14.4921 99.0325 15.4019C99.0325 15.5319 99.0325 15.6618 99.0325 15.7918C99.0325 17.0914 98.7726 18.2611 97.8628 19.4308Z" fill="white"/>
<path d="M169.472 16.0512C169.732 14.7515 169.862 13.4519 169.862 12.1523C169.862 10.8526 169.212 9.81292 168.043 9.29307C167.133 8.90318 166.093 8.77321 165.184 8.64325C162.714 8.38332 160.245 8.38332 157.776 9.1631C155.566 9.81292 154.137 11.2425 153.747 13.5819C153.877 13.5819 153.877 13.5819 153.877 13.5819C155.696 13.5819 157.516 13.5819 159.465 13.5819C159.595 13.5819 159.725 13.4519 159.725 13.3219C159.985 13.062 160.245 12.5422 160.635 12.4122C161.415 12.0223 162.194 12.0223 163.104 12.2822C163.884 12.5422 164.144 13.3219 163.494 13.9718C163.234 14.2317 162.974 14.3617 162.714 14.3617C161.934 14.4916 161.155 14.6216 160.245 14.7515C158.815 15.0115 157.256 15.1414 155.826 15.5313C153.747 16.0512 152.317 17.3508 151.797 19.5602C151.147 22.0295 152.187 23.849 154.656 24.3689C157.126 24.8887 159.465 24.4988 161.674 23.1992C161.934 23.0692 162.194 22.8093 162.584 22.6793C162.584 23.1992 162.584 23.719 162.584 24.2389C164.664 24.2389 166.613 24.2389 168.693 24.2389C168.823 24.2389 168.952 24.1089 168.952 24.1089C168.952 23.979 168.952 23.849 168.822 23.719C168.433 23.3292 168.303 22.8093 168.433 22.2894C168.693 20.21 169.082 18.1306 169.472 16.0512ZM162.064 20.21C161.285 21.1198 159.985 21.6396 158.815 21.2497C158.425 21.1198 158.036 20.8598 157.906 20.34C157.906 19.6902 158.036 19.1703 158.685 18.9104C159.205 18.6505 159.595 18.5205 160.115 18.3905C160.635 18.2606 161.025 18.1306 161.545 18.0006C162.064 17.8707 162.454 17.7407 162.974 17.6107C162.974 18.5205 162.714 19.4302 162.064 20.21Z" fill="white"/>
<path d="M0.259927 11.2421C0.389891 10.4624 0.519855 9.81254 0.649819 9.03276C1.03971 6.95334 1.68953 4.87392 2.59927 2.92446C2.72924 2.92446 2.8592 2.7945 2.98917 2.66454C5.97833 1.23493 9.09746 0.585116 12.3466 0.455152C16.3754 0.325188 20.1444 1.23493 23.9133 2.7945C24.0433 2.92446 24.3032 3.05443 24.4332 3.31435C26.1227 6.82337 26.9025 10.4624 26.7725 14.3613C26.6426 17.6104 25.8628 20.7295 24.3032 23.7187C24.1733 23.8486 24.0433 23.9786 23.7834 24.1085C21.1841 25.2782 18.4548 25.928 15.4657 26.188C11.1769 26.5779 7.01804 25.6681 2.98917 23.9786C2.59927 23.8486 2.46931 23.5887 2.33935 23.3288C1.16967 20.8595 0.519855 18.2602 0.129964 15.5309C0.129964 15.401 0.129964 15.401 0 15.271C0.259927 13.8414 0.259927 12.5418 0.259927 11.2421ZM0.909746 12.5418C0.909746 16.7006 1.68953 19.9497 3.11913 23.0688C3.24909 23.3288 3.37906 23.4587 3.63898 23.5887C7.66786 25.4082 11.8267 26.188 16.2455 25.6681C18.8447 25.4082 21.1841 24.7584 23.5234 23.7187C23.6534 23.5887 23.7834 23.4587 23.9133 23.3288C27.0325 16.8306 26.9025 10.2024 23.9133 3.70425C23.9133 3.57428 23.7834 3.44432 23.6534 3.31435C20.6642 2.01472 17.6751 1.10497 14.426 0.975007C10.657 0.845043 7.01804 1.62483 3.63898 3.05443C3.24909 3.18439 3.11913 3.31435 2.98917 3.70425C1.55956 6.69341 0.779782 9.81254 0.909746 12.5418Z" fill="#FAF8FB"/>
<path d="M13.7761 19.8203C13.6461 19.8203 13.5161 19.8203 13.2562 19.8203C13.2562 19.6903 13.2562 19.5604 13.2562 19.3004C13.2562 18.0008 13.2562 16.7012 13.2562 15.4015C13.2562 13.712 12.8663 12.1524 11.8266 10.8528C11.4367 10.4629 11.1768 10.203 10.7869 9.81308C10.1371 9.0333 9.48727 8.12356 9.35731 7.08385C9.09738 4.35461 11.0468 2.40515 13.6461 2.66508C15.8555 2.79504 17.1551 4.09468 17.4151 6.1741C17.675 7.73366 17.0252 8.90334 15.9855 9.94305C14.2959 11.5026 13.6461 13.582 13.6461 15.9214C13.7761 17.0911 13.7761 18.3907 13.7761 19.8203Z" fill="#FAF8FB"/>
<path d="M14.5559 19.8198C14.4259 19.8198 14.296 19.8198 14.166 19.8198C14.166 19.8198 14.166 19.8198 14.166 19.6898C14.166 18.0003 14.036 16.1808 14.296 14.4913C14.4259 12.4118 15.3357 10.7223 17.1552 9.42266C18.3248 8.64288 19.7544 8.77285 20.9241 9.68259C21.9638 10.4624 22.3537 12.1519 21.8339 13.3216C21.444 14.2313 20.7942 14.6212 20.0144 14.8811C19.1046 15.1411 18.3248 15.401 17.5451 15.6609C15.5956 16.4407 14.6859 17.7403 14.5559 19.8198Z" fill="#FAF8FB"/>
<path d="M12.4764 19.8204C12.3465 17.611 11.1768 16.3113 9.09736 15.5316C8.44754 15.2716 7.66776 15.0117 6.88798 14.8817C5.19845 14.6218 4.41867 12.9323 4.93852 11.2428C5.58834 9.03337 8.31758 8.25359 10.1371 9.68319C11.8266 11.1128 12.6064 12.9323 12.7363 15.0117C12.8663 16.4413 12.7363 17.8709 12.7363 19.4305C12.8663 19.6904 12.8663 19.9503 12.4764 19.8204Z" fill="#FAF8FB"/>
<path d="M5.06869 14.6208C5.58854 14.8808 6.1084 15.1407 6.49829 15.4006C7.66796 15.7905 8.83764 16.0505 10.0073 16.5703C11.3069 17.2201 12.0867 18.3898 11.9568 19.9494C11.8268 19.8194 11.6968 19.8194 11.5669 19.6894C11.177 18.9097 10.1373 18.3898 9.22753 18.5198C8.70767 18.5198 8.05786 18.6497 7.40804 18.7797C6.36833 18.9097 5.32862 18.3898 4.80876 17.3501C4.41887 16.5703 4.54883 15.1407 5.06869 14.6208Z" fill="#FAF8FB"/>
<path d="M17.675 18.3906H17.5451C17.4151 18.2606 17.2851 18.2606 17.1552 18.1307C17.4151 18.1307 17.5451 18.1307 17.4151 17.7408C17.2851 17.8708 17.2851 18.0007 17.1552 18.1307C16.5053 18.1307 16.1155 18.2606 15.8555 18.9105L15.7256 19.0404C15.4656 19.0404 15.2057 19.0404 15.0757 18.7805C15.0757 18.6505 15.0757 18.6505 15.2057 18.5206C15.3357 18.5206 15.5956 18.6505 15.7256 18.6505C15.8555 18.5206 15.9855 18.3906 15.9855 18.1307C15.8555 18.0007 15.7256 17.8708 15.5956 17.7408C15.9855 17.091 16.6353 16.5711 17.2851 16.3112C18.1949 15.9213 19.2346 15.6614 20.2743 15.4014C20.9241 15.2715 21.444 15.0116 21.8339 14.4917C22.3537 15.1415 22.3537 15.7913 22.3537 16.4412C22.2238 18.0007 21.0541 18.9105 19.4945 18.7805C19.1046 18.7805 18.8447 18.6505 18.4548 18.6505C18.1949 18.3906 17.9349 18.2606 17.675 18.3906Z" fill="#FAF8FB"/>
<path d="M7.14819 22.0295C7.53808 22.1595 7.66805 22.1595 7.92798 22.2895C7.79801 22.6793 7.79801 22.9393 7.66805 23.3292C7.40812 23.3292 7.14819 23.3292 6.88827 23.1992C6.62834 23.0692 6.36841 22.9393 6.49837 22.5494C6.49837 22.1595 6.62834 21.7696 6.7583 21.5097C6.7583 21.1198 7.01823 20.9898 7.53808 21.1198C7.92798 21.2497 8.05794 21.5097 7.92798 22.0295C7.66805 22.0295 7.53808 22.0295 7.53808 21.7696C7.53808 21.6396 7.40812 21.6396 7.40812 21.6396C7.27816 21.6396 7.14819 21.6396 7.14819 21.7696C7.01823 22.1595 6.88827 22.4194 6.88827 22.8093C6.88827 22.9393 7.01823 23.0692 7.01823 23.0692C7.14819 23.0692 7.27816 23.0692 7.27816 22.9393V22.6793C7.27816 22.4194 7.14819 22.2895 7.14819 22.0295Z" fill="#FAF8FB"/>
<path d="M10.6571 21.7698C10.787 21.7698 10.917 21.7698 11.0469 21.7698C11.0469 22.2896 10.917 22.6795 10.917 23.0694C10.917 23.1994 11.0469 23.3293 11.0469 23.5893C11.1769 23.4593 11.3069 23.3293 11.3069 23.1994C11.4368 22.8095 11.4368 22.2896 11.4368 21.8997C11.5668 21.8997 11.6968 21.8997 11.8267 21.8997C11.9567 22.5496 11.9567 23.0694 11.8267 23.5893C11.6968 23.9792 11.4368 24.1091 11.0469 23.9792C10.6571 23.9792 10.3971 23.7192 10.3971 23.3293C10.5271 22.8095 10.5271 22.4196 10.6571 21.7698Z" fill="#FAF8FB"/>
<path d="M19.4946 20.989C19.8845 21.7688 20.2743 22.2887 20.6642 22.9385C20.4043 23.1984 20.2743 23.0684 20.0144 22.8085C20.0144 22.6785 19.7545 22.6785 19.7545 22.6785C19.6245 22.6785 19.6245 22.8085 19.6245 22.9385C19.6245 23.1984 19.4946 23.3284 19.2346 23.3284C19.2346 22.6785 19.1047 22.0287 19.1047 21.3789C19.1047 21.3789 19.3646 21.2489 19.4946 20.989Z" fill="#FAF8FB"/>
<path d="M18.4547 22.2903C18.1947 22.1603 18.0648 22.1603 17.9348 22.0304C17.8048 22.0304 17.8048 21.9004 17.6749 21.9004C17.6749 21.9004 17.5449 22.0304 17.5449 22.1603C17.5449 22.5502 17.6749 22.9401 17.8048 23.2C17.8048 23.33 17.9348 23.33 18.0648 23.33C18.0648 23.33 18.1947 23.2 18.1947 23.0701C18.3247 22.8101 18.3247 22.8101 18.5846 22.8101C18.7146 23.33 18.5846 23.5899 18.1947 23.7199C17.6749 23.8498 17.5449 23.7199 17.415 23.0701C17.155 22.8101 17.155 22.5502 17.155 22.1603C17.155 21.7704 17.285 21.5105 17.6749 21.5105C18.0648 21.5105 18.3247 21.6405 18.4547 22.2903Z" fill="#FAF8FB"/>
<path d="M15.0759 18.7808C15.2058 19.0407 15.4658 19.0407 15.7257 19.0407C15.5957 19.1707 15.4658 19.4306 15.3358 19.5605C15.2058 19.6905 15.0759 19.8205 14.9459 19.8205L14.8159 19.6905C14.9459 19.4306 14.9459 19.1707 15.0759 18.7808Z" fill="#FAF8FB"/>
<path d="M15.8556 18.9106C15.9855 18.2608 16.5054 18.1309 17.1552 18.1309C17.2852 18.2608 17.4151 18.2608 17.5451 18.3908C17.0252 18.5208 16.3754 18.7807 15.8556 18.9106Z" fill="#FAF8FB"/>
<path d="M15.5957 17.74C15.7257 17.87 15.8556 17.9999 15.9856 18.1299C15.8556 18.2598 15.7257 18.3898 15.7257 18.6497C15.5957 18.6497 15.4657 18.5198 15.2058 18.5198C15.3358 18.2598 15.4657 17.9999 15.5957 17.74Z" fill="#FAF8FB"/>
<path d="M17.6749 18.3903C17.9349 18.1303 18.1948 18.3903 18.4547 18.5202C18.1948 18.5202 17.9349 18.5202 17.6749 18.3903Z" fill="#FAF8FB"/>
<path d="M17.155 18.1299C17.285 17.9999 17.285 17.87 17.415 17.74C17.5449 18.1299 17.415 18.1299 17.155 18.1299Z" fill="#FAF8FB"/>
<path d="M16.5054 22.9394C16.5054 22.8094 16.3755 22.8094 16.5054 22.6795C16.7654 22.1596 16.3755 21.7697 15.7257 21.8997C15.5957 21.8997 15.4657 21.8997 15.2058 22.0297C15.3358 22.8094 15.4657 23.4593 15.4657 24.1091C15.7257 24.1091 15.8556 24.1091 15.9856 23.9791C16.7654 23.8492 16.8953 23.4593 16.5054 22.9394ZM16.1156 23.7192H15.9856C15.9856 23.5892 15.9856 23.4593 15.8556 23.1993L15.9856 23.0694C16.1156 23.1993 16.2455 23.1993 16.2455 23.3293C16.2455 23.4593 16.1156 23.5892 16.1156 23.7192Z" fill="#FAF8FB"/>
<path d="M9.48723 21.6405C9.2273 21.5105 8.96737 21.5105 8.70745 21.5105C8.57748 22.1603 8.44752 22.9401 8.18759 23.5899C8.96737 23.7199 8.57748 23.0701 8.83741 22.8101C9.2273 22.8101 9.2273 23.0701 9.09734 23.33C8.96737 23.5899 9.09734 23.8498 9.48723 23.8498C9.61719 23.33 9.74716 22.9401 9.87712 22.4202C10.0071 22.0304 9.87712 21.7704 9.48723 21.6405ZM8.96737 22.4202C8.96737 22.2903 9.09734 22.0304 9.09734 21.9004C9.09734 21.9004 9.2273 21.9004 9.2273 21.7704C9.35727 21.9004 9.48723 22.0304 9.48723 22.1603C9.48723 22.5502 9.2273 22.4202 8.96737 22.4202Z" fill="#FAF8FB"/>
<path d="M13.9061 22.4195C13.7761 21.8997 13.5162 21.7697 12.6064 22.0296C12.6064 22.6794 12.6064 23.3293 12.6064 24.109C12.7364 24.109 12.8663 24.109 12.9963 24.109C12.9963 23.8491 12.9963 23.5892 12.9963 23.3293C13.6461 23.1993 13.9061 22.9394 13.9061 22.4195ZM13.3862 22.6794C13.2562 22.8094 13.1263 22.8094 12.9963 22.9394C12.9963 22.6794 12.9963 22.5495 12.9963 22.2895C13.1263 22.2895 13.2562 22.2895 13.3862 22.4195C13.3862 22.5495 13.3862 22.6794 13.3862 22.6794Z" fill="#FAF8FB"/>
</svg>
