<svg width="77" height="31" viewBox="0 0 77 31" fill="none" xmlns="http://www.w3.org/2000/svg">
<path d="M39.1918 7.27124V10.9312H41.488V11.7085H38.3531V7.27124H39.1918Z" fill="#58595B"/>
<path d="M45.9745 11.7004H42.6361V7.27124H45.9745V8.08096H43.4748V9.1012H45.885V9.87853H43.4748V10.8826H45.9745V11.7004Z" fill="#58595B"/>
<path d="M51.0798 8.49393L49.6304 10.4211H49.4676L48.0427 8.48584V11.7085H47.204V7.27936H48.1729L49.5653 9.18219L50.9658 7.27936H51.9266V11.7085H51.0798V8.49393Z" fill="#58595B"/>
<path d="M56.9098 8.55869C56.9098 8.89877 56.747 9.23075 56.3317 9.41699C56.8528 9.57893 57.0482 10.1295 57.0482 10.4048C57.0482 11.3927 56.2991 11.7085 55.379 11.7085H53.262V7.27124H55.379C56.2584 7.27124 56.9098 7.6599 56.9098 8.55869ZM54.0925 9.05262H55.379C55.9083 9.05262 56.0793 8.83399 56.0793 8.57488C56.0793 8.37245 55.9083 8.03237 55.379 8.03237H54.0925V9.05262ZM54.0925 10.9231H55.379C55.721 10.9231 56.2177 10.8097 56.2177 10.3886C56.2177 9.99189 55.7291 9.78136 55.379 9.78136H54.0925V10.9231Z" fill="#58595B"/>
<path d="M61.3719 10.8664H59.0432L58.6605 11.7004H57.7485L59.7516 7.26318H60.6717L62.6747 11.7004H61.7546L61.3719 10.8664ZM60.2076 8.20246L59.377 10.0891H61.0299L60.2076 8.20246Z" fill="#58595B"/>
<path d="M66.8681 8.35626C66.5668 8.07286 66.1271 7.91091 65.7363 7.91091C64.7836 7.91091 64.2055 8.63156 64.2055 9.54654C64.2055 10.2753 64.6289 11.0283 65.7363 11.0283C66.0864 11.0283 66.3958 10.9554 66.7459 10.672V9.88662H65.606V9.14168H67.5195V11.0121C67.0798 11.5142 66.5261 11.8137 65.7444 11.8137C64.0671 11.8137 63.3912 10.7206 63.3912 9.55464C63.3912 8.30767 64.1729 7.14978 65.7444 7.14978C66.347 7.14978 66.9414 7.3765 67.3973 7.82994L66.8681 8.35626Z" fill="#58595B"/>
<path d="M71.9327 10.8664H69.604L69.2213 11.7004H68.3093L70.3124 7.26318H71.2325L73.2355 11.7004H72.3154L71.9327 10.8664ZM70.7683 8.20246L69.9378 10.0891H71.5989L70.7683 8.20246Z" fill="#58595B"/>
<path d="M40.4539 16.4129H39.1918V17.7166H38.3531V13.2793C39.0534 13.2793 39.7537 13.2712 40.4539 13.2712C42.6361 13.2793 42.6361 16.4129 40.4539 16.4129ZM39.1918 15.6518H40.4539C41.5287 15.6518 41.5206 14.081 40.4539 14.081H39.1918V15.6518Z" fill="#58595B"/>
<path d="M46.5527 17.7247H43.2142V13.2875H46.5527V14.0972H44.0529V15.1174H46.4712V15.8948H44.0529V16.8988H46.5527V17.7247Z" fill="#58595B"/>
<path d="M50.7053 13.2794H51.5521V17.7247H51.0228L48.6859 14.7288V17.7247H47.8391V13.2875H48.5231L50.7053 16.0324V13.2794Z" fill="#58595B"/>
<path d="M56.6329 15.8299C56.6329 16.9797 55.9001 17.8137 54.6706 17.8137C53.5307 17.8137 52.7164 17.1336 52.7164 15.8785H53.547C53.547 16.6397 53.9134 17.0283 54.6706 17.0283C55.436 17.0283 55.7943 16.502 55.7943 15.8299V14.0729H54.4508V13.2955H56.6329V15.8299Z" fill="#58595B"/>
<path d="M61.1601 16.8826H58.8314L58.4487 17.7166H57.5367L59.5398 13.2794H60.4599L62.4629 17.7166H61.5428L61.1601 16.8826ZM59.9958 14.2186L59.1652 16.1053H60.8263L59.9958 14.2186Z" fill="#58595B"/>
<path d="M67.2183 14.5101L65.7689 16.4372H65.606L64.1811 14.502V17.7247H63.3424V13.2955H64.3114L65.7037 15.1984L67.0961 13.2955H68.0651V17.7247H67.2183V14.5101Z" fill="#58595B"/>
<path d="M70.2717 13.2875H69.433V17.7247H70.2717V13.2875Z" fill="#58595B"/>
<path d="M74.5626 13.2794H75.4013V17.7247H74.8802L72.5352 14.7288V17.7247H71.6884V13.2875H72.3723L74.5626 16.0324V13.2794Z" fill="#58595B"/>
<path d="M41.1053 20.3725C40.9506 20.1215 40.5272 19.8786 40.0468 19.8786C39.4198 19.8786 39.1267 20.1377 39.1267 20.4697C39.1267 20.8583 39.5827 20.9636 40.1201 21.0284C41.0483 21.1417 41.9196 21.3846 41.9196 22.4373C41.9196 23.4251 41.0402 23.8543 40.0468 23.8543C39.1348 23.8543 38.4346 23.579 38.1089 22.7612L38.8091 22.3968C39.0046 22.8826 39.5257 23.1012 40.0631 23.1012C40.5923 23.1012 41.089 22.915 41.089 22.4373C41.089 22.0162 40.6493 21.8462 40.0549 21.7814C39.143 21.6761 38.3043 21.4332 38.3043 20.4373C38.3043 19.5223 39.2081 19.1498 40.0305 19.1417C40.7226 19.1417 41.4473 19.3361 41.7811 20.0243L41.1053 20.3725Z" fill="#58595B"/>
<path d="M43.9714 19.3036H43.1409V23.7409H43.9714V19.3036Z" fill="#58595B"/>
<path d="M49.2234 20.5263L47.774 22.4534H47.603L46.1862 20.5182V23.7409H45.3475V19.3117H46.3165L47.7088 21.2145L49.1012 19.3117H50.062V23.7409H49.2234V20.5263Z" fill="#58595B"/>
<path d="M53.5307 22.4372H52.2686V23.7409H51.4299V19.3036C52.1302 19.3036 52.8304 19.2955 53.5307 19.2955C55.7047 19.2955 55.7129 22.4372 53.5307 22.4372ZM52.2686 21.668H53.5307C54.6055 21.668 54.5974 20.0972 53.5307 20.0972H52.2686V21.668Z" fill="#58595B"/>
<path d="M59.4747 22.8988H57.146L56.7633 23.7328H55.8513L57.8544 19.2955H58.7745L60.7775 23.7328H59.8574L59.4747 22.8988ZM58.3022 20.2348L57.4717 22.1214H59.1327L58.3022 20.2348Z" fill="#58595B"/>
<path d="M64.58 19.2955H65.4187V23.7409H64.8976L62.5525 20.753V23.7409H61.7139V19.3036H62.3978L64.58 22.0567V19.2955Z" fill="#58595B"/>
<path d="M69.9297 22.8988H67.6009L67.2182 23.7328H66.3063L68.3093 19.2955H69.2294L71.2325 23.7328H70.3124L69.9297 22.8988ZM68.7653 20.2348L67.9348 22.1214H69.5877L68.7653 20.2348Z" fill="#58595B"/>
<path d="M75.035 19.2955H75.8737V23.7409H75.3525L73.0075 20.753V23.7409H72.1688V19.3036H72.8528L75.035 22.0567V19.2955Z" fill="#58595B"/>
<path d="M76.0364 27.1174H38.0599V27.4737H76.0364V27.1174Z" fill="#58595B"/>
<path d="M76.0364 3.71661H38.0599V4.07289H76.0364V3.71661Z" fill="#58595B"/>
<path d="M22.1984 21.6923L24.1526 18.3158C24.234 18.3887 26.0824 20.0729 28.2239 20.0729C29.0788 20.0729 30.0152 20.0729 30.0152 19.0526C30.0152 17.6761 26.4162 17.2713 24.1445 15.4737C24.1363 15.4818 24.1119 15.5466 23.9246 15.9352C23.0045 17.6275 21.2946 18.6964 19.1206 18.6964H16.2137V23.9352H12.0448C12.0448 23.8138 12.0529 23.6923 12.0692 23.5628V22.0729L12.0448 22.1053V22.0972L10.9862 23.919H4.52112L7.94909 29.8219C8.36436 30.5344 9.12976 30.9717 9.95215 30.9717H25.26C26.0905 30.9717 26.8559 30.5344 27.263 29.8219L30.9923 23.4008C30.1862 23.7004 29.2498 23.8705 28.175 23.8705C24.9343 23.8785 22.8661 22.2915 22.1984 21.6923Z" fill="#DA8824"/>
<path d="M2.95776 13.0445C2.95776 13.0445 5.8239 7.60324 6.04375 7.29555C6.25545 6.98785 6.4753 6.98785 6.4753 6.98785V20.3725H12.0529V15.4656C12.0529 14.6154 12.2809 13.7733 12.7124 13.0364C12.7124 13.0364 15.6682 7.51417 15.7903 7.28745C15.9124 7.06073 16.2218 6.98785 16.2218 6.98785H19.1287C21.4412 6.98785 23.2325 8.17004 24.0956 10.0405C24.0956 10.0405 24.2259 10.4453 24.3155 10.8745L24.3725 10.7692C25.203 9.34413 25.9033 7.97571 26.2534 7.36842C26.3511 7.20648 26.5139 7.09312 26.6198 7.06882C27.1165 6.93927 27.605 6.91498 28.1506 6.91498C29.1521 6.91498 30.0315 7.03644 30.7887 7.20648L30.6747 7.00405L27.2793 1.1498C26.8641 0.437247 26.0987 0 25.2763 0H9.96843C9.1379 0 8.38064 0.437247 7.96537 1.1498L0.31145 14.3401C-0.103817 15.0526 -0.103817 15.9271 0.31145 16.6397L2.32263 20.0972V15.4656C2.2982 14.6154 2.5262 13.7814 2.95776 13.0445Z" fill="#DA8824"/>
<path d="M26.5139 11.8381C26.5139 10.8907 27.4666 10.5101 28.3216 10.5101C29.8361 10.5101 31.1714 11.328 31.7658 11.7571L32.5964 10.3239L32.1892 9.61945L30.7887 7.21459C30.0315 7.03646 29.1521 6.9231 28.1506 6.9231C27.605 6.9231 27.1165 6.94739 26.6198 7.07694C26.5139 7.10123 26.3511 7.21459 26.2534 7.37654C25.9033 7.98383 25.203 9.34415 24.3725 10.7773L24.3073 10.8826C24.2096 10.4454 24.0875 10.0486 24.0875 10.0486C23.2162 8.17816 21.433 6.99597 19.1206 6.99597H16.2137C16.2137 6.99597 15.9043 7.07694 15.7822 7.29557C15.66 7.52229 12.7043 13.0446 12.7043 13.0446C12.2727 13.7814 12.0448 14.6235 12.0448 15.4737V20.3806H6.46717V6.98787C6.46717 6.98787 6.24733 6.98787 6.03562 7.29557C5.82392 7.60326 2.94962 13.0446 2.94962 13.0446C2.51807 13.7814 2.29822 14.6235 2.29822 15.4737V20.1053L2.99847 21.3199L4.48855 23.8786L4.52112 23.9271H10.9862L12.0448 22.1053L12.0692 22.0729V23.5628C12.0529 23.6842 12.0448 23.8057 12.0448 23.9271H16.2137V18.6883H19.1206C21.2946 18.6883 23.0045 17.6195 23.9246 15.9271C24.1119 15.5466 24.1445 15.4818 24.1445 15.4656C26.4162 17.2551 30.0152 17.6599 30.0152 19.0446C30.0152 20.0648 29.087 20.0648 28.2239 20.0648C26.0824 20.0648 24.2259 18.3806 24.1526 18.3077L22.1984 21.6842C22.8661 22.2834 24.9343 23.8705 28.1832 23.8705C29.258 23.8705 30.2025 23.7004 31.0004 23.4008L31.147 23.1417L33.4595 19.166L34.1109 18.0486C33.3048 13.6276 26.5139 13.8462 26.5139 11.8381ZM18.2656 15.1336H16.2137V10.5344H18.3308C19.715 10.5344 20.4315 11.4575 20.4315 12.8097C20.4315 14.162 19.715 15.1336 18.2656 15.1336Z" fill="white"/>
<path d="M18.339 10.5344H16.2219V15.1336H18.2738C19.7313 15.1336 20.4397 14.162 20.4397 12.8097C20.4316 11.4575 19.715 10.5344 18.339 10.5344Z" fill="#DA8824"/>
<path d="M34.9252 14.34L32.5883 10.3239L31.7578 11.7571C31.1715 11.336 29.8361 10.5101 28.3135 10.5101C27.4585 10.5101 26.5059 10.8907 26.5059 11.838C26.5059 13.8461 33.2967 13.6275 34.1028 18.0566L34.9252 16.6396C35.3405 15.9352 35.3405 15.0526 34.9252 14.34Z" fill="#DA8824"/>
</svg>
