<svg width="92" height="37" viewBox="0 0 92 37" fill="none" xmlns="http://www.w3.org/2000/svg">
<path d="M27.5379 13.7976L23.0921 13.8138C23.0921 13.8138 23.0921 25.247 23.0921 28.9555C23.0921 32.664 20.1364 31.8623 20.1364 31.8623C22.7745 26.9959 21.659 22.4615 21.659 22.4615C20.8855 17.3279 17.8891 15.2713 15.7313 14.4372C14.6076 14.0081 13.4188 13.7814 12.2382 13.7814C9.49417 13.7814 6.76644 14.9959 4.90182 17.7166C1.17256 23.166 2.65449 32.9636 8.8672 35.2874C12.572 36.6721 16.8061 34.915 16.8061 34.915C23.9145 37.4818 27.6519 34.7206 27.6112 27.3441L27.5379 13.7976ZM17.6041 25.9028C17.3435 29.0688 15.2835 32.0405 12.4743 32.0405C11.6031 32.0405 10.6667 31.7571 9.68959 31.1093C6.07433 28.7368 6.18833 19.5304 10.6504 17.919C12.344 17.3036 14.3389 17.6437 15.6417 18.9069C17.3598 20.5749 17.7751 23.7409 17.6041 25.9028Z" fill="url(#paint0_radial)"/>
<path d="M44.2218 35.7409V35.749H37.6264L31.7964 26.0486L28.7185 29.0283L28.8569 22.3077L34.9556 14.8016L36.6086 13.1336L42.7154 13.6599L35.3546 22.1539L44.2218 35.7409Z" fill="url(#paint1_radial)"/>
<path fill-rule="evenodd" clip-rule="evenodd" d="M10.8213 5.47366C6.70124 6.67205 3.67224 10.8583 3.67224 10.8583C4.73891 12.7368 5.60201 15.0283 5.716 17.587C14.2005 9.78136 20.1526 9.9352 31.1042 12.7125C40.3704 15.0688 45.435 13.3927 48.5943 9.99188C48.5943 9.99188 41.6406 13.6032 37.0075 11.7166C37.0075 11.7166 36.918 11.6842 36.7633 11.6194C34.2065 11.8866 29.948 9.3603 29.948 9.3603C24.4437 6.32387 16.2849 3.87852 10.8213 5.47366Z" fill="#929497"/>
<path d="M30.1272 6.59109C26.8213 3.75709 20.8122 0 13.8422 0C12.8325 0 11.7984 0.0809717 10.7481 0.251012C2.47531 1.61134 0 4.96356 0 4.96356C0 4.96356 2.57302 7.03644 4.4865 10.4291C4.4865 10.4291 7.50736 6.24291 11.6356 5.04453C17.1073 3.44939 25.2661 5.90283 30.7623 8.93927C30.7623 8.93927 35.0126 11.4656 37.5775 11.1984C36.6656 10.8259 33.3597 9.35223 30.1272 6.59109Z" fill="url(#paint2_linear)"/>
<path d="M37.8217 11.3036C37.8217 11.3036 37.7322 11.2712 37.5775 11.2065C35.0207 11.4737 30.7622 8.94736 30.7622 8.94736C26.463 6.56679 20.5271 4.5506 15.5276 4.5506C14.1353 4.5506 12.8243 4.70444 11.6355 5.05262C7.51545 6.251 4.48645 10.4372 4.48645 10.4372C5.55311 12.3239 6.41622 14.6073 6.53021 17.1741C15.0147 9.36031 20.9668 9.51416 31.9184 12.2996C41.1846 14.6559 46.2492 12.9797 49.4085 9.57084C49.4085 9.57084 42.4548 13.1903 37.8217 11.3036Z" fill="url(#paint3_linear)"/>
<path d="M48.0407 13.3765H47.1938V36.4211H48.0407V13.3765Z" fill="#700F10"/>
<path d="M48.0407 13.3765H47.1938V36.4211H48.0407V13.3765Z" stroke="#700F10" stroke-width="0.313" stroke-miterlimit="2.613"/>
<path fill-rule="evenodd" clip-rule="evenodd" d="M52.3073 34.5182V28.9069H53.2681V31.4575H53.2844L55.2711 28.9069H56.4681L54.2777 31.6842L56.6553 34.5182H55.4177L53.2844 31.9838H53.2681V34.5182H52.3073Z" fill="#808184"/>
<path fill-rule="evenodd" clip-rule="evenodd" d="M57.9744 33.6518H60.5719V34.5182H57.0055V28.9069H60.4253V29.7652H57.9744V31.2146H60.0833V32.0729H57.9744V33.6518Z" fill="#808184"/>
<path fill-rule="evenodd" clip-rule="evenodd" d="M63.3811 34.6154C63.1042 34.6154 62.8599 34.5911 62.6319 34.5344C62.4121 34.4777 62.2167 34.3886 62.0538 34.2834C61.8828 34.1781 61.7444 34.0486 61.6223 33.8866C61.5083 33.7328 61.4106 33.5546 61.3373 33.3603C61.2803 33.1984 61.2314 33.0283 61.2152 32.8421C61.1907 32.6558 61.1744 32.4372 61.1744 32.2024V28.9069H62.1434V32.1133C62.1434 32.5101 62.1923 32.8259 62.2737 33.0445C62.3714 33.2955 62.5179 33.4737 62.7134 33.5789C62.9006 33.6923 63.1286 33.749 63.3892 33.749C63.6498 33.749 63.8777 33.6923 64.065 33.5789C64.2523 33.4656 64.3989 33.2874 64.4966 33.0445C64.5861 32.8178 64.6269 32.5101 64.6269 32.1133V28.9069H65.5958V32.2105C65.5958 32.4453 65.5877 32.6558 65.5632 32.8502C65.5388 33.0445 65.4981 33.2146 65.4411 33.3684C65.3678 33.5627 65.2782 33.7409 65.1561 33.8947C65.034 34.0486 64.8874 34.1781 64.7164 34.2915C64.5454 34.3967 64.35 34.4858 64.122 34.5425C63.894 34.5992 63.6579 34.6154 63.3811 34.6154Z" fill="#808184"/>
<path fill-rule="evenodd" clip-rule="evenodd" d="M69.4798 33.085H67.4849L66.9719 34.5101H65.9459L68.0385 28.8988H68.9261L71.0187 34.5101H70.0009L69.4798 33.085ZM68.4701 30.251C68.2828 30.834 68.1118 31.328 67.9734 31.7166L67.7943 32.2267H69.1703L68.9912 31.7166C68.8447 31.3199 68.6818 30.834 68.4945 30.251H68.4701Z" fill="#808184"/>
<path fill-rule="evenodd" clip-rule="evenodd" d="M74.1128 31.5141C74.4873 32.089 74.7968 32.5911 75.0329 33.0364H75.0573C75.0247 32.3077 75.0085 31.7733 75.0085 31.4413V28.9069H75.9774V34.5182H74.9678L73.2497 31.9352C72.9484 31.4899 72.6309 30.9716 72.3133 30.3805H72.2889C72.3214 31.0688 72.3377 31.6032 72.3377 31.9757V34.5182H71.3688V28.9069H72.3784L74.1128 31.5141Z" fill="#808184"/>
<path fill-rule="evenodd" clip-rule="evenodd" d="M80.1138 32.3644H78.9332V31.5061H81.0828V34.3401C81.0013 34.3725 80.9036 34.4049 80.7815 34.4373C80.6594 34.4697 80.5209 34.502 80.3744 34.5263C80.2278 34.5506 80.065 34.5749 79.9103 34.5911C79.7474 34.6073 79.5927 34.6154 79.438 34.6154C78.9657 34.6154 78.5505 34.5506 78.2003 34.413C77.8502 34.2753 77.5571 34.0891 77.3209 33.8381C77.0848 33.5871 76.9138 33.2956 76.7917 32.9555C76.6695 32.6154 76.6125 32.2429 76.6125 31.83C76.6125 31.5385 76.6451 31.2632 76.7103 30.996C76.7754 30.7288 76.865 30.4858 76.9871 30.2591C77.1092 30.0324 77.2558 29.83 77.4268 29.6518C77.5978 29.4656 77.7932 29.3118 78.0131 29.1822C78.2329 29.0526 78.469 28.9555 78.7296 28.8826C78.9902 28.8097 79.2751 28.7773 79.5683 28.7773C79.837 28.7773 80.0894 28.7935 80.3255 28.834C80.5617 28.8745 80.7652 28.9231 80.9118 28.9798V29.8462C80.7082 29.7814 80.4965 29.7247 80.293 29.6923C80.0812 29.6599 79.8777 29.6437 79.666 29.6437C79.381 29.6437 79.1123 29.6923 78.8599 29.7733C78.6075 29.8705 78.3958 30 78.2166 30.1782C78.0375 30.3563 77.8909 30.5749 77.7851 30.834C77.6792 31.0931 77.6304 31.3927 77.6304 31.7328C77.6304 32.3968 77.7932 32.8907 78.1189 33.2227C78.4446 33.5547 78.9006 33.7247 79.4868 33.7247C79.6008 33.7247 79.7148 33.7166 79.8288 33.7004C79.9428 33.6923 80.0487 33.6761 80.1382 33.6518V32.3644H80.1138Z" fill="#808184"/>
<path fill-rule="evenodd" clip-rule="evenodd" d="M84.8935 33.085H82.8985L82.3856 34.5101H81.3596L83.4522 28.8988H84.3316L86.4242 34.5101H85.4064L84.8935 33.085ZM83.8919 30.251C83.7047 30.834 83.5337 31.328 83.3952 31.7166L83.2161 32.2267H84.5922L84.413 31.7166C84.2665 31.3199 84.1036 30.834 83.9164 30.251H83.8919Z" fill="#808184"/>
<path fill-rule="evenodd" clip-rule="evenodd" d="M89.5265 31.5141C89.901 32.089 90.2104 32.5911 90.4466 33.0364H90.471C90.4384 32.3077 90.4221 31.7733 90.4221 31.4413V28.9069H91.3911V34.5182H90.3814L88.6634 31.9352C88.3621 31.4899 88.0527 30.9716 87.727 30.3805H87.7026C87.7351 31.0688 87.7514 31.6032 87.7514 31.9757V34.5182H86.7825V28.9069H87.7921L89.5265 31.5141Z" fill="#808184"/>
<path fill-rule="evenodd" clip-rule="evenodd" d="M53.3413 21.3765H54.3103V25.5223C54.3103 25.7085 54.294 25.8624 54.2696 26C54.2452 26.1377 54.2126 26.251 54.1556 26.3482C54.0904 26.4858 54.009 26.5992 53.9113 26.6883C53.8136 26.7854 53.6996 26.8583 53.5693 26.9231C53.4472 26.9798 53.3088 27.0283 53.1622 27.0526C53.0156 27.0769 52.8691 27.0931 52.7144 27.0931C52.5515 27.0931 52.405 27.0769 52.2502 27.0526C52.1037 27.0283 51.9734 26.9879 51.8676 26.9474V26.0729C51.9815 26.1215 52.1037 26.1619 52.234 26.1943C52.3642 26.2186 52.4945 26.2348 52.6248 26.2348C52.8691 26.2348 53.0564 26.17 53.1703 26.0486C53.2843 25.9271 53.3413 25.7409 53.3413 25.5061V21.3765Z" fill="#808184"/>
<path fill-rule="evenodd" clip-rule="evenodd" d="M58.178 25.5546H56.1831L55.6701 26.9797H54.6442L56.7368 21.3684H57.6162L59.7088 26.9797H58.691L58.178 25.5546ZM57.1765 22.7206C56.9892 23.3036 56.8263 23.7976 56.6798 24.1862L56.5006 24.6963H57.8767L57.6976 24.1862C57.551 23.7895 57.3882 23.2955 57.2009 22.7125H57.1765V22.7206Z" fill="#808184"/>
<path fill-rule="evenodd" clip-rule="evenodd" d="M62.6564 25.3684C62.6564 25.2308 62.6238 25.1174 62.5587 25.0202C62.4935 24.9312 62.404 24.8583 62.29 24.8097C62.176 24.753 62.0538 24.7044 61.9073 24.672C61.7688 24.6397 61.6223 24.6073 61.4676 24.5668C61.264 24.5182 61.0686 24.4615 60.8813 24.3967C60.694 24.332 60.5312 24.2429 60.3928 24.1214C60.2543 24.0081 60.1404 23.8623 60.0508 23.6761C59.9694 23.498 59.9205 23.2712 59.9205 23.004C59.9205 22.7044 59.9694 22.4453 60.0671 22.2267C60.1648 22.0081 60.2951 21.8218 60.4661 21.6761C60.637 21.5384 60.8325 21.4251 61.0523 21.3522C61.2803 21.2793 61.5327 21.2469 61.8096 21.2469C62.0864 21.2469 62.3714 21.2712 62.6564 21.336C62.9414 21.3927 63.1856 21.4656 63.3892 21.5627V22.4453C63.1205 22.332 62.8518 22.2429 62.6075 22.1943C62.3551 22.1376 62.119 22.1133 61.8991 22.1133C61.5816 22.1133 61.3373 22.1781 61.1663 22.2996C60.9953 22.421 60.9057 22.6073 60.9057 22.8502C60.9057 22.9959 60.9302 23.1093 60.9872 23.2065C61.0442 23.2955 61.1175 23.3765 61.2152 23.4332C61.3129 23.498 61.4269 23.5465 61.549 23.5789C61.6711 23.6113 61.8096 23.6518 61.948 23.6842C62.176 23.7328 62.3877 23.7895 62.5912 23.8542C62.7948 23.919 62.9739 24.0162 63.1286 24.1295C63.2833 24.251 63.4055 24.4048 63.5032 24.5911C63.5928 24.7854 63.6416 25.0283 63.6416 25.3198C63.6416 25.6194 63.5846 25.8866 63.4788 26.1053C63.3729 26.3239 63.2264 26.5101 63.0309 26.6559C62.8437 26.8016 62.6075 26.9069 62.3307 26.9797C62.0538 27.0526 61.7526 27.085 61.4269 27.085C61.1419 27.085 60.8569 27.0526 60.58 26.9959C60.3032 26.9393 60.0752 26.8502 59.8879 26.7449V25.8785C60.1485 26 60.4009 26.0891 60.6452 26.1376C60.8895 26.1943 61.15 26.2186 61.4106 26.2186C61.5653 26.2186 61.7119 26.2024 61.8584 26.1781C62.005 26.1538 62.1353 26.1052 62.2574 26.0405C62.3714 25.9757 62.4691 25.8866 62.5424 25.7733C62.6238 25.668 62.6564 25.5304 62.6564 25.3684Z" fill="#808184"/>
<path fill-rule="evenodd" clip-rule="evenodd" d="M67.3545 25.5546H65.3596L64.8466 26.9797H63.8207L65.9133 21.3684H66.7927L68.8853 26.9797H67.8675L67.3545 25.5546ZM66.353 22.7206C66.1657 23.3036 65.9947 23.7976 65.8482 24.1862L65.669 24.6963H67.0451L66.866 24.1862C66.7194 23.7895 66.5566 23.2955 66.3693 22.7125H66.353V22.7206Z" fill="#808184"/>
<path fill-rule="evenodd" clip-rule="evenodd" d="M56.2075 16.7368C56.2075 16.3968 56.1668 16.0972 56.0935 15.8381C56.0121 15.5789 55.9062 15.3684 55.7678 15.1984C55.6294 15.0283 55.4665 14.8988 55.2711 14.8178C55.0757 14.7368 54.8721 14.6883 54.6442 14.6883C54.4162 14.6883 54.2045 14.7287 54.0172 14.8178C53.8299 14.8988 53.6589 15.0283 53.5286 15.1984C53.3902 15.3684 53.2762 15.5789 53.2029 15.8381C53.1215 16.0972 53.0808 16.3968 53.0808 16.7368C53.0808 17.0769 53.1215 17.3765 53.2029 17.6356C53.2844 17.8947 53.3902 18.1053 53.5286 18.2753C53.6671 18.4453 53.8299 18.5749 54.0172 18.6559C54.2126 18.7368 54.4162 18.7854 54.6442 18.7854C54.8721 18.7854 55.0838 18.7449 55.2711 18.6559C55.4584 18.5749 55.6294 18.4453 55.7678 18.2753C55.9062 18.1053 56.0121 17.8947 56.0935 17.6356C56.1668 17.3765 56.2075 17.0769 56.2075 16.7368ZM57.209 16.7368C57.209 17.166 57.152 17.5547 57.0381 17.9109C56.9241 18.2672 56.7531 18.5749 56.5332 18.834C56.3134 19.0931 56.0447 19.2955 55.7271 19.4332C55.4096 19.5708 55.0431 19.6437 54.636 19.6437C54.2289 19.6437 53.8706 19.5708 53.5449 19.4332C53.2274 19.2874 52.9587 19.0931 52.7388 18.834C52.519 18.5749 52.3561 18.2672 52.234 17.9109C52.12 17.5547 52.063 17.166 52.063 16.7368C52.063 16.3077 52.12 15.919 52.234 15.5627C52.348 15.2065 52.5108 14.8988 52.7388 14.6397C52.9587 14.3806 53.2274 14.1781 53.5449 14.0405C53.8625 13.9028 54.2289 13.83 54.636 13.83C55.0431 13.83 55.4096 13.9028 55.7271 14.0405C56.0447 14.1862 56.3134 14.3806 56.5332 14.6397C56.7531 14.8988 56.9159 15.2065 57.0381 15.5627C57.152 15.919 57.209 16.3077 57.209 16.7368Z" fill="#808184"/>
<path fill-rule="evenodd" clip-rule="evenodd" d="M59.7983 19.5466H58.8294V14.7935H57.1357V13.9352H61.5001V14.7935H59.7983V19.5466Z" fill="#808184"/>
<path fill-rule="evenodd" clip-rule="evenodd" d="M65.5551 16.7368C65.5551 16.3968 65.5144 16.0972 65.4329 15.8381C65.3515 15.5789 65.2457 15.3684 65.1072 15.1984C64.9688 15.0283 64.7978 14.8988 64.6106 14.8178C64.4233 14.7368 64.2116 14.6883 63.9836 14.6883C63.7475 14.6883 63.5439 14.7287 63.3566 14.8178C63.1693 14.8988 62.9983 15.0283 62.8599 15.1984C62.7215 15.3684 62.6156 15.5789 62.5342 15.8381C62.4528 16.0972 62.4121 16.3968 62.4121 16.7368C62.4121 17.0769 62.4528 17.3765 62.5342 17.6356C62.6156 17.8947 62.7215 18.1053 62.8599 18.2753C62.9983 18.4453 63.1612 18.5749 63.3566 18.6559C63.552 18.7368 63.7556 18.7854 63.9836 18.7854C64.2116 18.7854 64.4233 18.7449 64.6106 18.6559C64.806 18.5749 64.9688 18.4453 65.1072 18.2753C65.2457 18.1053 65.3515 17.8947 65.4329 17.6356C65.5144 17.3765 65.5551 17.0769 65.5551 16.7368ZM66.5566 16.7368C66.5566 17.166 66.4996 17.5547 66.3856 17.9109C66.2716 18.2672 66.1006 18.5749 65.8889 18.834C65.6691 19.0931 65.4004 19.2955 65.0828 19.4332C64.7653 19.5708 64.3988 19.6437 63.9917 19.6437C63.5846 19.6437 63.2182 19.5708 62.9006 19.4332C62.5831 19.2874 62.3144 19.0931 62.0945 18.834C61.8747 18.5749 61.7118 18.2672 61.5897 17.9109C61.4757 17.5547 61.4187 17.166 61.4187 16.7368C61.4187 16.3077 61.4757 15.919 61.5897 15.5627C61.7037 15.2065 61.8747 14.8988 62.0945 14.6397C62.3144 14.3806 62.5831 14.1781 62.9006 14.0405C63.2182 13.9028 63.5846 13.83 63.9917 13.83C64.3988 13.83 64.7571 13.9028 65.0828 14.0405C65.4004 14.1862 65.6691 14.3806 65.8889 14.6397C66.1088 14.8988 66.2716 15.2065 66.3856 15.5627C66.4996 15.919 66.5566 16.3077 66.5566 16.7368Z" fill="#808184"/>
<path fill-rule="evenodd" clip-rule="evenodd" d="M71.0838 15.6194C71.0838 16.0081 70.978 16.3401 70.7744 16.6154C70.5709 16.8826 70.2615 17.085 69.8299 17.2227V17.2388L71.4095 19.5465H70.2452L68.8121 17.3765H68.1525V19.5465H67.1836V13.9433H68.7795C69.0482 13.9433 69.2925 13.9595 69.5205 13.9919C69.7485 14.0243 69.9439 14.0729 70.1067 14.1376C70.4162 14.2591 70.6523 14.4534 70.8233 14.6963C70.9943 14.9392 71.0838 15.2469 71.0838 15.6194ZM68.6248 16.5101C68.8447 16.5101 69.0319 16.502 69.1866 16.4777C69.3414 16.4534 69.4635 16.4291 69.5693 16.3805C69.7648 16.2996 69.895 16.1943 69.9683 16.0567C70.0416 15.9271 70.0823 15.7652 70.0823 15.587C70.0823 15.4332 70.0579 15.3036 69.9927 15.1903C69.9358 15.0688 69.8299 14.9878 69.6915 14.915C69.6019 14.8664 69.4879 14.834 69.3495 14.8178C69.2111 14.8016 69.0401 14.7854 68.8365 14.7854H68.1525V16.502H68.6248V16.5101Z" fill="#808184"/>
<path d="M72.8263 13.9352H71.8573V19.5385H72.8263V13.9352Z" fill="#808184"/>
<path fill-rule="evenodd" clip-rule="evenodd" d="M75.8553 19.5466H74.8864V14.7935H73.1846V13.9352H77.5571V14.7935H75.8553V19.5466Z" fill="#808184"/>
<path fill-rule="evenodd" clip-rule="evenodd" d="M80.4884 18.1214H78.4935L77.9805 19.5465H76.9546L79.0472 13.9433H79.9266L82.0192 19.5465H81.0014L80.4884 18.1214ZM79.4869 15.2874C79.2996 15.8704 79.1286 16.3644 78.9821 16.753L78.8029 17.2631H80.1709L79.9917 16.753C79.8452 16.3563 79.6823 15.8623 79.495 15.2874H79.4869Z" fill="#808184"/>
<path fill-rule="evenodd" clip-rule="evenodd" d="M84.9667 17.9352C84.9667 17.7975 84.9342 17.6761 84.869 17.587C84.8039 17.498 84.7143 17.4251 84.6003 17.3684C84.4863 17.3117 84.3642 17.2712 84.2176 17.2307C84.0792 17.1984 83.9326 17.1579 83.7779 17.1255C83.5744 17.0769 83.3789 17.0202 83.1917 16.9554C83.0044 16.8907 82.8415 16.8016 82.7031 16.6801C82.5647 16.5668 82.4507 16.421 82.3693 16.2429C82.2878 16.0648 82.239 15.838 82.239 15.5708C82.239 15.2712 82.2878 15.0202 82.3856 14.7935C82.4833 14.5749 82.6135 14.3967 82.7845 14.251C82.9555 14.1052 83.1428 14 83.3708 13.9271C83.5906 13.8542 83.8512 13.8218 84.128 13.8218C84.4049 13.8218 84.6899 13.8542 84.9749 13.9109C85.2599 13.9676 85.5041 14.0486 85.7077 14.1376V15.0202C85.439 14.9069 85.1703 14.8259 84.9179 14.7692C84.6736 14.7206 84.4293 14.6882 84.2095 14.6882C83.8919 14.6882 83.6476 14.753 83.4766 14.8745C83.3057 14.9959 83.2161 15.1822 83.2161 15.4251C83.2161 15.5708 83.2487 15.6842 83.3057 15.7814C83.3627 15.8704 83.4359 15.9514 83.5336 16.0081C83.6314 16.0729 83.7372 16.1133 83.8675 16.1538C83.9896 16.1862 84.128 16.2186 84.2665 16.251C84.4863 16.2996 84.698 16.3643 84.9016 16.4291C85.1051 16.4939 85.2843 16.583 85.439 16.7044C85.5937 16.8259 85.7158 16.9797 85.8135 17.166C85.9031 17.3522 85.952 17.5951 85.952 17.8866C85.952 18.1862 85.895 18.4534 85.7973 18.672C85.6914 18.8907 85.5448 19.0769 85.3494 19.2146C85.154 19.3603 84.926 19.4656 84.6492 19.5384C84.3723 19.6113 84.0711 19.6437 83.7454 19.6437C83.4604 19.6437 83.1754 19.6113 82.8985 19.5546C82.6217 19.498 82.3937 19.4089 82.2064 19.3036V18.4372C82.467 18.5587 82.7194 18.6397 82.9718 18.6963C83.2161 18.753 83.4766 18.7773 83.7372 18.7773C83.8919 18.7773 84.0385 18.7611 84.185 18.7368C84.3316 18.7125 84.4619 18.6639 84.584 18.5992C84.698 18.5344 84.7957 18.4453 84.869 18.3401C84.9342 18.2267 84.9667 18.0971 84.9667 17.9352Z" fill="#808184"/>
<defs>
<radialGradient id="paint0_radial" cx="0" cy="0" r="1" gradientUnits="userSpaceOnUse" gradientTransform="translate(23.8314 23.6765) scale(17.7616 17.6628)">
<stop stop-color="#C61F25"/>
<stop offset="0.1469" stop-color="#AE1B1F"/>
<stop offset="0.3544" stop-color="#931519"/>
<stop offset="0.565" stop-color="#7F1214"/>
<stop offset="0.7787" stop-color="#741011"/>
<stop offset="1" stop-color="#700F10"/>
</radialGradient>
<radialGradient id="paint1_radial" cx="0" cy="0" r="1" gradientUnits="userSpaceOnUse" gradientTransform="translate(23.544 24.4955) scale(19.1075 19.0012)">
<stop stop-color="#C61F25"/>
<stop offset="0.1469" stop-color="#AE1B1F"/>
<stop offset="0.3544" stop-color="#931519"/>
<stop offset="0.565" stop-color="#7F1214"/>
<stop offset="0.7787" stop-color="#741011"/>
<stop offset="1" stop-color="#700F10"/>
</radialGradient>
<linearGradient id="paint2_linear" x1="-0.682584" y1="11.7434" x2="37.8423" y2="2.23087" gradientUnits="userSpaceOnUse">
<stop stop-color="#C92026"/>
<stop offset="0.42" stop-color="#F59171"/>
<stop offset="0.76" stop-color="#B11E23"/>
<stop offset="0.99" stop-color="#F59174"/>
<stop offset="1" stop-color="white"/>
</linearGradient>
<linearGradient id="paint3_linear" x1="3.83807" y1="15.894" x2="49.0274" y2="2.66399" gradientUnits="userSpaceOnUse">
<stop stop-color="white"/>
<stop offset="0.01" stop-color="#C9C9CB"/>
<stop offset="0.35" stop-color="white"/>
<stop offset="0.64" stop-color="#BCBDC1"/>
<stop offset="0.95" stop-color="white"/>
<stop offset="1" stop-color="white"/>
</linearGradient>
</defs>
</svg>
